<svg version="1.1" id="Слой_1" xmlns="http://www.w3.org/2000/svg" x="0" y="0" width="355" height="202" xml:space="preserve"><style>.st0{fill:#0eb357}</style><path class="st0" d="M0 74.242v51.216l253.677 76.085 100.147-93.932.868-50.266L117.412.907 0 74.242z"/><path d="M.608 74.242v51.497L253.481 202l-1.402-56.281L.608 74.242z" fill="#15c462"/><path d="M252.314 144.869l1.233 56.338 101.144-94.722.309-49.218-102.686 87.602z" fill="#0da24f"/><path class="st0" d="M251.752 144.869l102.994-87.602L117.613 0 .434 73.363l251.318 71.506z"/><path d="M242.888 57.881c-8.277-4.062-.368-10.524-.368-10.524l25.383 7.016s5.15-4.985 4.047-8.124c-1.104-3.139-19.497-7.201-28.878-9.417s-51.686-12.555-51.686-12.555-10.852-2.031-17.658.185-7.909 4.431-7.909 4.431l23.544 5.908s-5.518 4.431-17.658 4.801c-12.14.369-15.451-4.985-16.003-6.278-.552-1.292-.552-1.662-.552-1.662L151.103 30 94.266 68.96l33.844 34.158 90.497-1.662 52.79-41.175-4.415-1.477c.001.001-15.817 3.139-24.094-.923zm20.417-14.032c8.645 2.4 2.943 7.939 2.943 7.939l-20.785-5.908c.368-.739 9.197-4.432 17.842-2.031zm-91.601-15.695s7.909-5.355 17.106-2.4 2.391 7.57 2.391 7.57l-19.497-5.17zm45.8 71.271l-86.083.738-32.74-31.757 53.342-36.005c1.839 11.448 25.567 9.971 35.5 6.278s9.749-10.709 9.749-10.709l55.549 13.294s-7.173 1.662-12.324 4.616c-5.15 2.954-10.852 8.124.736 13.479s25.567 1.477 25.567 1.477l-49.296 38.589zm-48.375-24.003l23.728-17.171 7.725 1.846 3.863-2.216-2.023-5.724 11.22 3.324-3.127-10.709-21.888 3.693 8.645 3.323-15.083 1.662-.552 1.846s-7.725.185-8.461-.369 1.656-2.585 1.656-2.585l.184-4.062-.92-4.431-21.889 3.324-6.254 5.354s-6.806 6.647-7.541 7.201-8.093 6.278-8.093 6.278l-2.759 3.877-11.588 1.292 8.645 3.324-3.863 3.323 5.334 1.662 4.047-3.693 10.301 3.139-.552-6.093s4.047-3.877 5.702-5.539S150 64.713 150 64.713s9.381-1.477 11.22-1.662c1.839-.185 6.07 1.108 6.07 1.108l-9.381 12.186-16.186 2.031 11.956 3.693-3.495 3.508 4.414 2.031 5.334-4.062 12.508 3.878-4.047-8.863.736-3.139zm53.158-16.802l-9.933 7.201-2.575 2.954-.736 3.139-10.3.369v1.662l.92 4.985-7.357 3.324s-.736.185-2.759.369c-2.023.185-2.207 1.292-2.207 1.292l-12.692 3.324 8.645 2.954-3.495 3.693 4.966 1.846 4.415-4.247 11.036 2.954-2.207-10.894 17.474-3.139s8.829-1.108 10.484-1.477c1.655-.369 8.093-4.431 8.093-4.431l.92-6.647-3.863-9.417-8.829.186z" fill="#3ed481"/><path d="M144.161 134.797c-.374-1.144-1.008-2.03-1.88-2.511-.875-.483-1.518-1.124-1.464-.252.054.873.558 5.258.558 5.258s-.593-3.082-.668-3.528c-.075-.447-.505-1.73-.79-1.87-.286-.14-1.576-1.104-1.981-.835-.406.27.165 2.385.046 2.048-.119-.337-.79-2.303-1.529-2.897-.742-.595-1.838-.261-1.838-.261s-.031.021-.349-.323-1.397-.747-1.665-.573c-.247.16.111 2.724.172 3.141-.02-.093-.085-.316-.299-.844-.326-.803-1.047-2.922-2.82-3.816-1.787-.901-2.345 1.082-2.345 1.082s-.283-1.895-.625-2.984c-.343-1.089-1.277-3.422-2.724-4.603-1.455-1.188-3.039-.615-3.331.102-.293.719.239 7.714.239 7.714s-.183-.57-.436-1.438c-.254-.868-1.247-3.103-2.978-3.758-1.744-.659-2.216.657-2.216.657l-.373-.463-.016-1.366s-.422-2.037-.792-2.619-2.248-1.656-2.604-1.564c-.356.093.378 3.917.378 3.917s-.662-.645-.653-.304c.008.341-.042 1.757-.042 1.757s-.076-.185-.447-.889c-.371-.705-1.181-1.96-2.622-2.736-1.449-.781-2.172.336-2.172.336s-.767-1.068-1.819-1.511c-1.056-.445-1.108.285-1.108.285l.334 4.958-.796-4.226s-.432-1.039-1.03-1.752c-.599-.714-1.088.032-1.088.032s-.226-.81-.25-1.265-.17-.607-.486-1.367c-.316-.76-.903-1.839-1.705-3.035-.804-1.199-1.944-1.869-3.192-1.782-1.255.088-1.82 1.1-1.581 4.518.24 3.428.711 6.257.711 6.257l2.152 5.205-2.732-2.008c-.359.088-.071 3.055.264 6.291.336 3.243.9 6.354 3.939 8.422 3.005 2.045 3.89-.775 3.785-4.375-.105-3.587-1.043-6.56-2.662-10.314-1.624-3.766-1.917-4.346-2.011-5.786-.094-1.438.27-1.535.27-1.535s.393 2.759.487 3.772c.094 1.014.427 1.57.868 1.957.44.387 2.018 1.39 2.018 1.39s1.412 12.219 1.702 13.764c.29 1.546 1.148 2.195 2.506 2.956 1.351.757 1.72.737 1.797-1.244.077-1.975-.089-7.628-.064-6.793.025.836.515 5.117 1.036 6.606.521 1.488 2.098 3.899 4.196 4.245 2.079.343 1.601-3.028 1.601-3.028s.998 2.246 1.843 3.284c.843 1.035 2.086.933 2.189.865s-.389-2.805-.389-2.805.923 2.905 3.24 4.514c2.297 1.595 2.349-3.5 2.349-3.5s.09.896.789 2.436c.698 1.538 1.764 2.723 4.053 3.531 2.267.8 1.838-3.061 1.838-3.061s.028.067.413 1.007c.385.939 1.478 2.588 3.227 3.591 1.737.996 1.97-1.398 1.97-1.398l.639 5.029 3.282 2.489-.715-5.544s1.16 1.544 1.769 1.781c.364.142.618-.402.748-1.177-.003-.021-.007-.044-.007-.044h.014c.081-.508.11-1.108.082-1.68-.073-1.47-1.222-11.257-1.222-11.257s2.241 11.365 2.452 12.817c.212 1.454-.195 1.075-.574.589-.339-.435-.671-.467-.738-.468-.002.015-.005.029-.007.044.032.211.216 1.403.431 2.864.237 1.612.411 1.995 1.034 2.808.621.812 2.374 1.786 2.983 1.07.606-.713.079-11.092-.049-13.672-.128-2.573-.146-9.184-.52-10.328zm-46.618-1.212l-.282-3.545c.589 2.544.282 3.545.282 3.545zm11.691-5.157l-.239-3.394c.001 0 .376 3.239.239 3.394zm2.687-2.019c.151.934.671 9.284.671 9.284l-.671-9.284zm3.189 1.673c.611 5.985.848 11.805.848 11.805l-.848-11.805zm3.022.611s.689 6.413.893 12.051l-.893-12.051zm8.801 8.597c-.745-.62-1.939-1.227-1.96-1.028-.021.2.154 3.245.298 4.454.144 1.21.038 2.215.038 2.215l-1.642-16.825.323.441s.212 2.166.39 3.251c.178 1.086.411 2.506 1.05 3.017.638.51 2.119 1.298 2.119 1.298l.449 4.781c.001.002-.322-.986-1.065-1.604zm3.385-4.638c.017-.163.814 6 1.203 12.338l-1.203-12.338zm5.53 2.261s1.001 7.04 1.364 11.966l-1.364-11.966zm145.844-57.174c-3.284-1.099-5.136-2.198-6.568-1.268-1.431.93-7.494 5.747-7.494 5.747s3.116-3.55 3.621-4.057c.505-.507.926-2.113-.168-2.451-1.095-.338-5.389-2.198-7.831-2.198s-3.789 2.536-3.705 2.113c.084-.423.674-2.874-1.684-3.972-2.358-1.099-8.135-1.488-8.135-1.488s-.185 0-1.019-.558-5.094-1.674-6.669-1.674c-1.446 0-4.605 2.818-5.111 3.277-.043.055-.076.07-.076.07s.032-.029.076-.07c.082-.107.201-.374.201-1.046 0-1.023.648-3.626-5.835-5.671-6.484-2.045-12.683-.415-12.683-.415s2.22-2.075 2.679-3.381.536-4.226-3.828-6.301c-4.363-2.075-12.478-2.459-15.081-1.921s-12.888 7.786-12.888 7.786.224-.675.672-1.688c.448-1.012.112-3.825-6.276-5.512-6.388-1.688-10.76-.675-10.76-.675l-.784-.675 2.354-1.35s1.793-2.25 1.233-3.037c-.56-.788-6.725-2.925-8.406-3.037s-5.268 4.05-5.268 4.05-1.681-1.012-2.242-.675c-.56.338-3.25 1.688-3.25 1.688s0-.225-.336-1.125-1.569-2.587-6.276-4.162-9.639-.9-9.639-.9-1.345-1.463-4.932-2.475c-3.586-1.013-5.043-.338-5.043-.338l-7.061 4.95 3.923-4.5s0-1.237-1.233-2.25-4.483-.563-4.483-.563.448-.9 1.121-1.35c.672-.45.336-.675.336-1.575s-.56-2.25-1.793-3.825-4.707-2.813-9.863-3.375-9.078.113-13.786 3.487c-4.707 3.375-7.509 6.3-7.509 6.3l-.112 6.075-7.397-3.375c-1.543-.111-5.26 2.828-9.229 6.037-3.968 3.209-6.834 6.417 1.543 10.069 8.378 3.651 16.517 1.527 22.075-1.922 5.557-3.448 6.77-6.796 6.568-11.258-.202-4.463-.404-5.173 1.617-6.593s3.638-1.319 3.638-1.319-3.031 2.84-4.345 3.854-.909 1.724.202 2.333 5.76 2.434 5.76 2.434S95.76 56.359 94.346 57.982c-1.415 1.623.909 2.738 5.052 4.26 4.143 1.521 5.659 1.724 9.296-.102 3.638-1.826 12.53-7.303 11.216-6.491-1.314.811-6.568 5.173-6.972 6.897-.404 1.724 1.92 4.97 9.902 6.593 7.983 1.623 11.8-1.899 11.8-1.899s.276 2.771 2.002 4.295c1.725 1.524 7.109 2.217 7.661 2.217s3.251-2.944 3.251-2.944-1.179 3.381 5.81 6.424 16.244-1.86 16.244-1.86-1.204.93-.926 2.882 2.779 3.812 11.3 6.136c8.521 2.324 13.632-1.749 13.632-1.749v1.268c0 1.183 1.852 3.55 7.831 5.747 5.979 2.198 11.452 0 11.452 0l-6.4 5.409 10.273 4.818 7.073-6.001s2.442 2.367 4.8 3.043c1.413.405 3.613.049 5.675-.628.025-.024.051-.049.051-.049s.029.005.066.01c1.335-.447 2.605-1.024 3.555-1.616 2.442-1.521 15.662-12.171 15.662-12.171s-11.115 13.016-12.883 14.622c-1.768 1.606-2.947.93-3.789.169-.753-.68-2.237-.953-2.545-1.004-.039.013-.078.025-.117.038-.247.233-1.644 1.553-3.401 3.163-1.937 1.775-1.853 2.282-.505 3.55 1.347 1.268 7.663 3.55 11.873 3.296s21.641-11.072 26.019-13.777c4.379-2.705 17.178-9.466 17.599-10.903.42-1.435-.927-2.787-4.211-3.886zM84.654 51.044l4.726-3.488c-1.876 2.72-4.726 3.488-4.726 3.488zm60.742-1.605s-4.031 3.348-4.865 3.418l4.865-3.418zm-3.416 12.422l13.316-9.381c-.992.996-13.316 9.381-13.316 9.381zm6.841 6.116l17.097-11.971c-7.923 6.195-17.097 11.971-17.097 11.971zm11.51 2.762l17.514-12.306c0 .001-8.424 6.698-17.514 12.306zm42.509 4.001s.364-1.189-1.822-2.286-6.377-2.469-6.833-2.286-5.193 3.292-6.742 4.572c-1.549 1.28-3.826 2.195-3.826 2.195l23.231-17.648.638.64s-3.006 2.286-4.191 3.475c-1.184 1.189-2.733 2.743-.82 3.658s7.106 2.652 7.106 2.652l-6.741 5.028zm4.618 8.383l17.357-13.067c.379-.152-7.425 6.523-17.357 13.067zm22.401 5.821l16.225-12.937s-8.643 7.762-16.225 12.937z" fill="#333"/><path d="M119.086 38.537L95.591 59.219l9.548 2.775 33.922-18.034-7.287-1.765-24.75 14.124 19.222-15.512-7.16-2.27zm-17.213 4.035c-.126-3.783 0-5.044 0-5.044s5.025-3.783 6.784-4.036c1.759-.252 4.397.252 3.015 1.513s-6.659 5.423-6.659 5.423l6.91 2.396s8.795-5.927 9.297-7.188c.503-1.261-1.759-4.918-7.79-5.549s-11.81.126-16.835 3.783-4.774 4.161-4.774 8.197-.125 5.801-.125 5.801-4.523 4.162-5.654 4.666-6.282-.126-4.272-1.387c2.01-1.261 8.292-5.675 8.292-5.675l-7.538-2.901s-10.805 6.81-10.805 8.576 4.02 4.54 10.051 5.171c6.031.63 13.443-1.387 17.212-5.297s3.017-4.665 2.891-8.449zm13.595 97.837l-1.035-13.916.747.318-.225-2.182-.559-.434-.274-3.436-2.048-.846.339 3.539-.736-.206.415 2.729.499.346s.593 12.414.824 13.843c.231 1.43.413 2.233 1.635 3.145 1.217.908 1.347.428 1.347.428l-.286-2.566-.643-.762zm-11.566-5.1l-1.624-15.291-2.218-1.099 2.59 20.239 2.867 1.142.369-19.098-2.035-.649.051 14.756zm16.545-6.62s-.565-2.844-2.1-3.434c-1.545-.594-2.383-.725-2.67 1.766 0 0 .616 10.632.882 13.071.266 2.443.839 3.899 2.628 5.066 1.777 1.159 2.652-.343 2.32-4.405-.332-4.049-1.06-12.064-1.06-12.064zm-1.028 14.16c-.386-.097-.812-1.58-.812-1.58l-1.098-13.422s.064-.735.449-.625c.384.11.762 1.727.762 1.727l.944 11.861c0-.001.14 2.136-.245 2.039zm-21.394-18.53c-1.369-3.201-1.792-4.289-1.792-4.289s-.323-3.794-.055-4.208c.268-.412.981-.28 1.148.946.167 1.227.575 5.365.575 5.365l2.237 1.228s-.326-6.011-.669-7.132c-.343-1.122-2.086-3.967-3.528-3.836-1.452.132-2.367 1.423-2.091 5.121.276 3.708.509 4.111 1.952 7.558 1.44 3.439 2.044 4.956 2.044 4.956s.564 4.088.514 4.656c-.05.568-1.326.668-1.366-.655-.04-1.322-.335-5.844-.335-5.844l-2.586-1.577s.219 7.151.855 8.664c.636 1.512 2.458 3.377 3.913 3.157 1.445-.218 2.221-2.843 1.596-6.607-.627-3.759-1.046-4.31-2.412-7.503zm11.666 9.129s.76 4.394.518 5.207c-.242.815-.765.883-.927-1.791-.162-2.667-.314-4.94-.314-4.94l2.961 1.311s-.327-5.277-.456-6.888c-.129-1.609-.587-3.15-1.912-4.049-1.332-.903-2.667-1.293-2.884.007 0 0-.017 6.558.159 10.667.176 4.125.435 6.752 1.736 8.316 1.296 1.558 3.751 1.425 3.869-.631.118-2.05-.339-5.698-.339-5.698l-2.411-1.511zm-1.169-8.9s-.09-1.004.422-.486c.511.516.627 1.973.627 1.973l.279 3.951-.973-.704-.355-4.734zm7.297-59.78c2.638 2.27 12.941 3.657 16.961 1.766 4.02-1.892 8.418-5.675 8.418-5.675l-7.412-2.9s-4.397 4.666-6.784 5.297c-2.387.631-4.648.378-.754-2.27 3.895-2.648 7.161-4.918 7.161-4.918l10.051 3.027s7.789-5.297 10.051-6.936c2.261-1.64 3.015-3.405-1.005-5.045-4.02-1.639-8.92-2.774-12.061-1.639 0 0-11.307 6.306-17.589 10.341-6.283 4.033-9.675 6.682-7.037 8.952zm28.437-16.072s1.359-1.023 2.605-.227c1.246.796-.793 2.274-.793 2.274l-5.664 3.979-2.832-1.251 6.684-4.775zm131.612 29.435L253.12 94.333l17.368-17.244-8.306-1.8-21.805 24.54s-1.605.663-3.209-.19c-1.605-.853-2.265-1.611-2.265-1.611l-3.964 3.505s6.324 3.032 10.761 2.937c4.436-.095 13.121-6.064 20.011-10.138 6.891-4.074 23.032-13.738 23.032-13.738l-8.875-2.463zm-41.155-5.874s3.021-3.316-2.265-5.116c-5.286-1.8-11.233-3.221-16.613.284L195.918 82.3s-1.982 1.326 1.888 3.979 11.61 3.79 17.368.947c5.758-2.841 19.539-14.969 19.539-14.969zM205.825 85.2c-1.581-.529-.843-1.693-.843-1.693l18.45-14.181s1.581-.847 2.636-.529c1.054.317.738 1.905.738 1.905s-13.073 10.054-15.182 11.747c-2.109 1.693-4.218 3.28-5.799 2.751zm-17.891-25.351s2.638-3.153-3.015-4.666c-5.654-1.513-9.046-2.144-14.699.126 0 0-16.082 10.719-19.222 13.242-3.141 2.522-3.267 4.288 2.261 6.558s11.935 1.387 17.715-2.775c5.779-4.161 16.96-12.485 16.96-12.485zm-29.632 13.178c-1.473-.341-.68-2.047-.68-2.047l19.03-13.758s1.586-.682 3.058-.341.227 2.16.227 2.16l-16.991 12.166c0 .001-3.172 2.161-4.644 1.82zm35.537-1.323s-8.041 7.062-10.302 7.062-4.272-.63.628-4.162c4.9-3.531 21.233-16.016 21.233-16.016s2.513-1.513 3.895-.126-.503 2.774-3.015 4.414c-2.513 1.639-3.267 2.648-3.267 2.648l8.166 2.522s7.036-5.801 7.915-6.558 1.382-3.783-2.387-5.044c-3.769-1.261-10.93-3.279-16.584-1.387 0 0-25.379 17.277-28.017 19.799-2.638 2.522-2.136 3.783.88 5.423 3.015 1.639 13.192 4.288 17.966 1.892s10.679-7.567 10.679-7.567l-7.79-2.9zm37.665 23.577c5.286-.474 13.781-7.864 19.256-12.317s10.477-8.338 6.324-9.664c-4.153-1.326-8.684-.758-8.684-.758l-.094-.947-6.607-1.8-33.51 25.675 8.212 2.842 7.74-6.822c0 .001 2.077 4.264 7.363 3.791zm-4.383-6.06l18.555-14.604s1.687-.106 2.636.212c.949.317 0 .847-3.479 4.339s-13.811 12.17-15.92 11.747c-2.108-.424-1.792-1.694-1.792-1.694zm-4.18 56.089l-4.255 15.656 3.867 1.243.669-2.965 4.365 1.359.672 3.442 4.096 1.317-4.573-18.762-4.841-1.29zm1.025 10.396c.553-2.508.912-4.197 1.074-5.061.162-.866.271-1.49.326-1.872.061.446.188 1.19.382 2.235.194 1.046.358 1.901.494 2.566l.583 2.987-2.859-.855zm-87.126-24.131c-1.114-.571-1.698.376-1.698.376l-.316-.729-1.692-.673 2.483 24.064 2.301 1.204-.862-6.266s1.702 3.068 2.437 2.058c.731-1.005-.181-7.737-.67-11.822-.487-4.074-.874-7.643-1.983-8.212zm.837 16.952c-.489-.077-.839-1.105-.839-1.105l-1.498-13.547s.251-.272.511-.131.267.66.786 3.773c.519 3.119 1.529 11.087 1.04 11.01zm28.145-94.479l2.638.757 2.89-2.27-1.633-.757 4.9-3.531-7.287-2.018-4.774 3.657-2.764-.63-3.015 2.901 1.508.63s-19.097 12.359-20.604 13.872c-1.508 1.513-2.136 2.396 1.382 4.036 3.518 1.639 4.9 1.261 4.9 1.261l3.267-2.648-1.382-1.135 19.974-14.125zm-40.407 83.483s.885 6.603.482 6.876c-.404.274-.971.013-1.257-3.408-.284-3.412-1.461-15.289-1.461-15.289s-.047-1.492.654-.534c.699.956.817 2.275.906 3.867.089 1.595.285 2.487.285 2.487l2.266 1.079s-.646-5.406-.737-6.105c-.091-.699-.985-3.164-2.062-3.757-1.082-.596-3.025-1.432-3.422.711 0 0 1.122 16.843 1.48 19.193.359 2.353.868 3.307 1.955 4.255 1.082.944 3.761 1.809 3.821-.682.06-2.482-.585-7.295-.585-7.295l-2.325-1.398zm5.286-8.036c-1.493-.832-2.989-1.295-2.796 2.091l1.337 14.141s.084 1.293 1.622 2.925c1.531 1.623 3.231 1.573 3.306-1.357.075-2.918-1.444-14.03-1.444-14.03s-.541-2.943-2.025-3.77zm1.208 17.331c-.445-.227-.693-1.236-.693-1.236l-1.372-13.359s.002-.848.287-.716c.284.132.74 1.42.74 1.42s.974 9.44 1.155 11.025c.18 1.587.327 3.092-.117 2.866zm11.747-12.689l-2.202-.908 1.316 15.06-2.521-15.266-1.934-.469 4.079 21.496s-.057.707-.589.245c-.533-.463-.881-.969-.881-.969l.445 3.197s1.995 1.559 2.692.939c.694-.617.252-6.246.109-10.185-.144-3.924-.514-13.14-.514-13.14zm98.688 16.413l-3.688-.983-5.963 9.047v3.469l5.714 1.776v3.447l3.938 1.266v-3.489l1.654.514v-3.655l-1.654-.496V150.55h-.001zm-3.904 6.079c-.023.655-.035 1.177-.035 1.567v2.07l-2.387-.715 1.6-2.448c.285-.46.54-.971.766-1.531l.11.031c-.012.029-.03.371-.054 1.026z" fill="#fff"/></svg>