<?xml version="1.0" encoding="UTF-8"?>
<!DOCTYPE svg PUBLIC "-//W3C//DTD SVG 1.1//EN" "http://www.w3.org/Graphics/SVG/1.1/DTD/svg11.dtd">
<!-- Creator: CorelDRAW 2018 (64-Bit) -->
<svg xmlns="http://www.w3.org/2000/svg" xml:space="preserve" width="1349px" height="382px" version="1.1" style="shape-rendering:geometricPrecision; text-rendering:geometricPrecision; image-rendering:optimizeQuality; fill-rule:evenodd; clip-rule:evenodd"
viewBox="0 0 1198.4 339.12"
 xmlns:xlink="http://www.w3.org/1999/xlink">
 <defs>
  <style type="text/css">
   <![CDATA[
    .fil2 {fill:#085C8F}
    .fil1 {fill:#C79769}
    .fil0 {fill:#003A5E;fill-rule:nonzero}
   ]]>
  </style>
 </defs>
 <g id="Слой_x0020_1">
  <metadata id="CorelCorpID_0Corel-Layer"/>
  <path class="fil0" d="M436.44 100.31l-0.13 -71.63 -23.68 0 -21.96 37.4 -19.96 -37.4 -26.43 0 0 71.63 22.6 0 0 -38.19 17.84 31.85 10.7 0 18.4 -31.32 0 37.66 22.62 0zm52.16 1.19c23.65,0 40.44,-15.46 40.44,-37.14 0,-21.54 -16.79,-36.87 -40.44,-36.87 -23.4,0 -40.44,15.33 -40.44,36.87 0,21.68 17.04,37.14 40.44,37.14zm0 -19.96c-8.46,0 -15.07,-6.21 -15.07,-17.18 0,-10.83 6.61,-16.91 15.07,-16.91 8.59,0 15.06,6.08 15.06,16.91 0,10.97 -6.47,17.18 -15.06,17.18zm89.6 -59.73c17.05,0 25.11,-7.01 25.11,-21.81l-16.52 0c0,5.82 -2.77,9.25 -8.72,9.25 -6.08,0 -8.32,-3.43 -8.46,-9.25l-16.25 0c0.13,14.8 7.93,21.81 24.84,21.81zm-37.4 78.5l23.26 0 29.74 -37.66 0 37.66 25.11 0 0 -71.63 -23.13 0 -30 37.53 0 -37.53 -24.98 0 0 71.63z"/>
  <path class="fil0" d="M378.96 120.28c-12.6,0 -24.31,3.55 -32.46,10.07l5.93 10.67c6.07,-5.18 15.56,-8.44 24.9,-8.44 14.08,0 21.04,6.96 21.04,18.97l0 2.81 -22.52 0c-23.42,0 -31.57,10.38 -31.57,22.98 0,13.63 11.26,23.12 29.05,23.12 12.3,0 21.04,-4.15 25.79,-11.27l0 10.38 13.48 0 0 -47.43c0,-21.49 -12.15,-31.86 -33.64,-31.86zm-3.26 69.21c-10.82,0 -17.34,-4.89 -17.34,-12.75 0,-6.66 4,-12.15 18.08,-12.15l21.93 0 0 10.97c-3.55,9.04 -12,13.93 -22.67,13.93zm108.07 -30.68c7.86,-3.11 12.6,-9.19 12.6,-17.64 0,-12.89 -11.11,-20.15 -29.64,-20.15l-36.46 0 0 78.55 37.79 0c20.9,0 30.98,-8 30.98,-21.64 0,-9.93 -4.89,-16.45 -15.27,-19.12zm-39.57 -26.83l21.34 0c10.82,0 16.6,3.71 16.6,11.27 0,7.56 -5.78,11.56 -16.6,11.56l-21.34 0 0 -22.83zm22.83 56.62l-22.83 0 0 -23.56 23.72 0c11.7,0 16.89,3.85 16.89,12 0,8 -6.08,11.56 -17.78,11.56zm104.81 -67.58l-71.73 0 0 12.45 28.75 0 0 66.1 14.23 0 0 -66.1 28.75 0 0 -12.45zm36.79 79.44c23.57,0 40.76,-16.75 40.76,-40.17 0,-23.41 -17.19,-40.01 -40.76,-40.01 -23.57,0 -40.91,16.6 -40.91,40.01 0,23.42 17.34,40.17 40.91,40.17zm0 -12.45c-15.12,0 -26.53,-10.97 -26.53,-27.72 0,-16.75 11.41,-27.57 26.53,-27.57 15.12,0 26.38,10.82 26.38,27.57 0,16.75 -11.26,27.72 -26.38,27.72zm130.61 -66.99l-31.72 53.06 -30.83 -53.06 -14.67 0 0 78.55 13.04 0 0 -57.51 29.05 48.62 6.22 0 29.35 -48.47 0 57.36 12.89 0 0 -78.55 -13.33 0zm66.72 79.44c23.57,0 40.76,-16.75 40.76,-40.17 0,-23.41 -17.19,-40.01 -40.76,-40.01 -23.56,0 -40.91,16.6 -40.91,40.01 0,23.42 17.35,40.17 40.91,40.17zm0 -12.45c-15.12,0 -26.53,-10.97 -26.53,-27.72 0,-16.75 11.41,-27.57 26.53,-27.57 15.12,0 26.38,10.82 26.38,27.57 0,16.75 -11.26,27.72 -26.38,27.72zm93.41 -64.33c-13.19,0 -24.31,5.78 -30.98,15.86 1.48,-20.45 11.12,-30.53 31.57,-34.98l33.05 -7.11 -2.07 -13.04 -35.87 8c-27.12,5.93 -40.32,23.57 -40.32,56.03 0,33.05 14.97,52.31 41.8,52.31 24.01,0 40.61,-15.71 40.61,-38.83 0,-22.53 -15.56,-38.24 -37.79,-38.24zm-2.52 65.22c-15.12,0 -25.94,-10.97 -25.94,-26.53 0,-15.56 10.52,-25.94 25.94,-25.94 15.41,0 25.79,10.38 25.79,25.94 0,15.56 -10.53,26.53 -25.79,26.53zm52.64 10.67l13.05 0 48.02 -57.21 0 57.21 14.23 0 0 -78.55 -12.9 0 -48.17 57.21 0 -57.21 -14.23 0 0 78.55zm101.95 -78.55l-1.33 29.05c-1.04,18.52 -1.63,37.79 -14.38,37.79 -1.03,0 -2.22,-0.15 -3.55,-0.44l-0.89 12c3.26,0.89 6.07,1.33 8.74,1.33 17.81,0 21.52,-22.08 22.85,-49.79l0.89 -17.49 33.82 0 0 66.1 14.23 0 0 -78.55 -60.38 0zm116.28 26.63l-22.08 -0.15 0 -26.48 -14.23 0 0 78.52 34.09 0.15c21.05,0.15 32.9,-9.36 32.9,-26.38 0,-16.15 -10.67,-25.52 -30.68,-25.66zm-3.41 41.2l-18.67 -0.15 0 -30.8 18.67 0.29c13.05,0.15 19.57,4.6 19.57,14.97 0,10.5 -6.67,15.84 -19.57,15.69z"/>
  <circle class="fil1" cx="88.14" cy="171.03" r="13.88"/>
  <circle class="fil2" cx="182" cy="171.03" r="13.88"/>
  <path class="fil1" d="M0 28.71l135.07 0 0 53.28 -81.79 0 0 158.61 34.17 0 0 -18.51 47.62 0 0 117.03 -82.88 -47.98c-48.79,-28.17 -52.19,-64.33 -52.19,-110.9l0 -151.53z"/>
  <path class="fil2" d="M270.14 28.71l-135.07 0 0 53.28 81.78 0 0 158.61 -34.16 0 0 -18.51 -47.62 0 0 117.03 82.88 -47.98c48.79,-28.17 52.19,-64.33 52.19,-110.9l0 -151.53z"/>
 </g>
</svg>
